# xmcd
#
# Track frame offsets:
#	150
#	41795
#	56963
#	81547
#	94519
#	108979
#	124210
#	149256
#	162706
#	184495
#
# Disc length: 2695 seconds
# Revision: 0
# Processed by: cddbd v1.5.2PL0 Copyright (c) Steve Scherf et al.
# Submitted via: dBpowerAMP V12.0
#
DISCID=990a850a
DTITLE=Steppenwolf - Monster
DYEAR=1969
DGENRE=Bluesrock
TTITLE0=Monster, Suicide, America
TTITLE1=Draft Resister
TTITLE2=Power Play
TTITLE3=Move Over
TTITLE4=Fag
TTITLE5=What Would You Do (If I Did That To You)
TTITLE6=From Here To There Eventually
TTITLE7=Move Over [Mono Single Version]
TTITLE8=Power Play [Mono Single Version]
TTITLE9=America [Mono Single Version]
EXTD=
EXTT0=
EXTT1=
EXTT2=
EXTT3=
EXTT4=
EXTT5=
EXTT6=
EXTT7=
EXTT8=
EXTT9=
PLAYORDER=
